<?xml version="1.0" encoding="utf-8"?>
<!-- Generator: Adobe Illustrator 23.1.1, SVG Export Plug-In . SVG Version: 6.00 Build 0)  -->
<svg version="1.1" id="Слой_1" xmlns="http://www.w3.org/2000/svg" xmlns:xlink="http://www.w3.org/1999/xlink" x="0px" y="0px"
	 viewBox="0 0 120 120" style="enable-background:new 0 0 120 120;" xml:space="preserve">
<style type="text/css">
	.st0{fill:#55B043;}
</style>
<path class="st0" d="M2,72.5c-1.5,25.4,54.6,44.6,55.5,10.9C55.4,63.1,31,48.2,12.8,54.2c-5.6,2.1,1.9,10.2-7.4,13.7
	C3.5,69,2.6,69.8,2,72.5z"/>
<path class="st0" d="M63.9,94.4c10.9,15.8,44.2,4.9,50.6-12.6c2.2-4.1,4.3-10.4,0.2-12.2C99,61,121.3,49.2,87.2,54.8
	c-1.5,11.4-12.3,26.1-22.9,27.1c0.4,3.7-0.1,7.4-1.2,10.9C63.2,93.2,63.9,94.4,63.9,94.4"/>
<path class="st0" d="M54.7,18C41.4,13.3,37.1,39.3,39.2,50c10.4,4.9,19.9,13.9,23.5,25c21.2-5.9,23.6-40.5,10-55
	C67.4,11.4,63.4,24.8,54.7,18z M60.9,55.4c-6.7,0.1-6.7-10.6,0-10.5C67.6,44.7,67.6,55.5,60.9,55.4z"/>
</svg>
